# xmcd CD database file
#
# Track frame offsets:
#	150
#	14263
#	32249
#	48092
#	66908
#	86056
#	101797
#	118423
#	141395
#	154273
#	166428
#	177909
#	195057
#	208167
#	227376
#	241339
#	256943
#	273980
#
# Disc length: 3848 seconds
#
# Revision: 6
# Processed by: cddbd v1.5.2PL0 Copyright (c) Steve Scherf et al.
# Submitted via: CDex 1.51
#
DISCID=fa0f0612
DTITLE=John Denver - The Best Of John Denver
DYEAR=2004
DGENRE=Country
TTITLE0=Annie`s Song
TTITLE1=Windsong
TTITLE2=Two Different Directions
TTITLE3=Rocky Mountain High
TTITLE4=To The Wild Country
TTITLE5=Higher Ground
TTITLE6=Children Of The Universe
TTITLE7=Sunshine On My Shoulders
TTITLE8=American Child
TTITLE9=Alaska And Me
TTITLE10=In A Faraway Land
TTITLE11=Calypso
TTITLE12=The Flower That Shattered The Stone
TTITLE13=Potter`s Wheel
TTITLE14=Ancient Rhymes
TTITLE15=Rocky Mountain Suite
TTITLE16=A Country Girl In Paris
TTITLE17=Take Me Home, Country Roads
EXTD=YEAR: 2004
EXTT0=
EXTT1=
EXTT2=
EXTT3=
EXTT4=
EXTT5=
EXTT6=
EXTT7=
EXTT8=
EXTT9=
EXTT10=
EXTT11=
EXTT12=
EXTT13=
EXTT14=
EXTT15=
EXTT16=
EXTT17=
PLAYORDER=
